<svg xmlns="http://www.w3.org/2000/svg" width="619.16" height="245.9" viewBox="0 0 619.16 245.9"><path d="M40.18,245.9a40.19,40.19,0,0,1-29.65-67.32L161.85,13.07a40.2,40.2,0,0,1,59.34,54.25L69.86,232.83A40.09,40.09,0,0,1,40.18,245.9Z" fill="#f9c2bb"/><path d="M233.91,245.9a40.19,40.19,0,0,1-29.66-67.32L355.57,13.07a40.2,40.2,0,0,1,59.34,54.25L263.58,232.83A40.09,40.09,0,0,1,233.91,245.9Z" fill="#e47066"/><path d="M427.63,245.9A40.2,40.2,0,0,1,398,178.58L549.3,13.07a40.2,40.2,0,0,1,59.33,54.25L457.3,232.83A40.09,40.09,0,0,1,427.63,245.9Z" fill="#bc5449"/></svg>